<svg xmlns="http://www.w3.org/2000/svg" width="38" height="38" viewBox="0 0 38 38"><defs><style>.a{fill:#fff;}.b{fill:#e00;}</style></defs><path class="a" d="M28,1H10a9,9,0,0,0-9,9V28a9,9,0,0,0,9,9H28a9,9,0,0,0,9-9V10a9,9,0,0,0-9-9Z"/><path d="M28,2.25A7.7587,7.7587,0,0,1,35.75,10V28A7.7587,7.7587,0,0,1,28,35.75H10A7.7587,7.7587,0,0,1,2.25,28V10A7.7587,7.7587,0,0,1,10,2.25H28M28,1H10a9,9,0,0,0-9,9V28a9,9,0,0,0,9,9H28a9,9,0,0,0,9-9V10a9,9,0,0,0-9-9Z"/><path class="b" d="M14,23.4766H10a.6253.6253,0,0,1-.625-.625v-4a.6252.6252,0,0,1,.625-.625h4a.6252.6252,0,0,1,.625.625v4A.6253.6253,0,0,1,14,23.4766Zm-3.375-1.25h2.75v-2.75h-2.75Z"/><path class="b" d="M21,23.4766H17a.6253.6253,0,0,1-.625-.625v-4a.6252.6252,0,0,1,.625-.625h4a.6252.6252,0,0,1,.625.625v4A.6253.6253,0,0,1,21,23.4766Zm-3.375-1.25h2.75v-2.75h-2.75Z"/><path class="b" d="M17.5,16.4766h-4a.6253.6253,0,0,1-.625-.625v-4a.6252.6252,0,0,1,.625-.625h4a.6252.6252,0,0,1,.625.625v4A.6253.6253,0,0,1,17.5,16.4766Zm-3.375-1.25h2.75v-2.75h-2.75Z"/><path class="b" d="M24.5,16.4766h-4a.6253.6253,0,0,1-.625-.625v-4a.6252.6252,0,0,1,.625-.625h4a.6252.6252,0,0,1,.625.625v4A.6253.6253,0,0,1,24.5,16.4766Zm-3.375-1.25h2.75v-2.75h-2.75Z"/><path class="b" d="M28,23.4766H24a.6253.6253,0,0,1-.625-.625v-4a.6252.6252,0,0,1,.625-.625h4a.6252.6252,0,0,1,.625.625v4A.6253.6253,0,0,1,28,23.4766Zm-3.375-1.25h2.75v-2.75h-2.75Z"/><path d="M29,26.4766H9a.625.625,0,0,1,0-1.25H29a.625.625,0,0,1,0,1.25Z"/></svg>